<?xml version="1.0" encoding="UTF-8"?>
<svg version="1.1" xmlns="http://www.w3.org/2000/svg" width="512" height="512">
<path d="M0 0 C1.23234375 -0.00515625 2.4646875 -0.0103125 3.734375 -0.015625 C5.66023438 0.00757813 5.66023438 0.00757813 7.625 0.03125 C8.90890625 0.01578125 10.1928125 0.0003125 11.515625 -0.015625 C12.74796875 -0.01046875 13.9803125 -0.0053125 15.25 0 C16.93996094 0.00676758 16.93996094 0.00676758 18.6640625 0.01367188 C22.35000216 0.65798191 23.43571552 1.52362265 25.625 4.53125 C26.72167969 7.4921875 26.72167969 7.4921875 27.546875 10.90625 C27.84980469 12.13859375 28.15273438 13.3709375 28.46484375 14.640625 C28.91537109 16.56648438 28.91537109 16.56648438 29.375 18.53125 C29.69281288 19.82841899 30.01181204 21.12529794 30.33203125 22.421875 C32.625 31.91139069 32.625 31.91139069 32.625 36.53125 C34.0367783 37.06519179 35.45470244 37.58290104 36.875 38.09375 C38.05835938 38.52880859 38.05835938 38.52880859 39.265625 38.97265625 C43.96479573 40.08520826 47.20228587 37.76856454 51.1953125 35.40625 C52.25621094 34.78234375 53.31710937 34.1584375 54.41015625 33.515625 C55.51230469 32.86078125 56.61445313 32.2059375 57.75 31.53125 C59.93987652 30.23919742 62.12996962 28.94751182 64.3203125 27.65625 C65.28984863 27.08132813 66.25938477 26.50640625 67.25830078 25.9140625 C71.07919866 23.68159235 73.1272717 22.86491988 77.625 23.53125 C80.61855767 25.52267249 83.07980336 28.0038831 85.625 30.53125 C86.51574219 31.39621094 87.40648437 32.26117188 88.32421875 33.15234375 C96.4595495 41.14841064 96.4595495 41.14841064 96.94140625 45.17578125 C96.52429041 49.59926902 94.81814907 52.45676925 92.5625 56.21875 C92.15854004 56.91846924 91.75458008 57.61818848 91.33837891 58.33911133 C88.36341121 63.44549527 85.15990062 68.37644579 81.7421875 73.19921875 C80.33090106 76.14515583 80.68308978 77.45401451 81.625 80.53125 C81.975625 81.789375 82.32625 83.0475 82.6875 84.34375 C82.996875 85.395625 83.30625 86.4475 83.625 87.53125 C85.22601563 87.69173828 85.22601563 87.69173828 86.859375 87.85546875 C92.63100814 88.58137239 98.23133794 89.96029756 103.875 91.34375 C104.95007813 91.59189453 106.02515625 91.84003906 107.1328125 92.09570312 C108.16664063 92.34900391 109.20046875 92.60230469 110.265625 92.86328125 C111.19922852 93.08733643 112.13283203 93.3113916 113.09472656 93.54223633 C116.18158214 94.74880251 117.65007359 95.86328228 119.625 98.53125 C120.14257812 101.4921875 120.14257812 101.4921875 120.15625 104.90625 C120.16140625 106.13859375 120.1665625 107.3709375 120.171875 108.640625 C120.15640625 109.92453125 120.1409375 111.2084375 120.125 112.53125 C120.14046875 113.81515625 120.1559375 115.0990625 120.171875 116.421875 C120.16671875 117.65421875 120.1615625 118.8865625 120.15625 120.15625 C120.15173828 121.28289062 120.14722656 122.40953125 120.14257812 123.5703125 C119.49826809 127.25625216 118.63262735 128.34196552 115.625 130.53125 C112.6640625 131.62792969 112.6640625 131.62792969 109.25 132.453125 C108.01765625 132.75605469 106.7853125 133.05898438 105.515625 133.37109375 C104.23171875 133.67144531 102.9478125 133.97179687 101.625 134.28125 C100.32783101 134.59906288 99.03095206 134.91806204 97.734375 135.23828125 C88.24485931 137.53125 88.24485931 137.53125 83.625 137.53125 C83.09105821 138.9430283 82.57334896 140.36095244 82.0625 141.78125 C81.62744141 142.96460938 81.62744141 142.96460938 81.18359375 144.171875 C80.07104174 148.87104573 82.38768546 152.10853587 84.75 156.1015625 C85.37390625 157.16246094 85.9978125 158.22335937 86.640625 159.31640625 C87.62289062 160.96962891 87.62289062 160.96962891 88.625 162.65625 C89.91705258 164.84612652 91.20873818 167.03621962 92.5 169.2265625 C93.07492187 170.19609863 93.64984375 171.16563477 94.2421875 172.16455078 C96.47465765 175.98544866 97.29133012 178.0335217 96.625 182.53125 C94.63357751 185.52480767 92.1523669 187.98605336 89.625 190.53125 C88.32755859 191.86736328 88.32755859 191.86736328 87.00390625 193.23046875 C79.00783936 201.3657995 79.00783936 201.3657995 74.98046875 201.84765625 C70.55698098 201.43054041 67.69948075 199.72439907 63.9375 197.46875 C63.23778076 197.06479004 62.53806152 196.66083008 61.81713867 196.24462891 C56.71075473 193.26966121 51.77980421 190.06615062 46.95703125 186.6484375 C44.01109417 185.23715106 42.70223549 185.58933978 39.625 186.53125 C38.366875 186.881875 37.10875 187.2325 35.8125 187.59375 C34.760625 187.903125 33.70875 188.2125 32.625 188.53125 C32.521875 189.60375 32.41875 190.67625 32.3125 191.78125 C31.85200577 195.55115157 31.02185743 199.14944881 30.08203125 202.828125 C29.80979736 203.89901367 29.53756348 204.96990234 29.25708008 206.07324219 C29.04849365 206.88438477 28.83990723 207.69552734 28.625 208.53125 C38.2139418 208.44651864 47.80271272 208.35151103 57.39142323 208.24372292 C61.84482071 208.19397728 66.29819694 208.14764705 70.75170898 208.109375 C75.05715608 208.07224549 79.36241527 208.02581428 83.66769981 207.97318649 C85.30252441 207.95478835 86.93738906 207.93962786 88.57227516 207.92790604 C107.78814184 207.90348887 107.78814184 207.90348887 124.625 199.53125 C134.86577398 189.07442594 134.77112944 176.31103025 134.83032227 162.51782227 C134.83991289 161.09808576 134.84992365 159.67835204 134.86032104 158.25862122 C134.88724791 154.42033307 134.90832324 150.58203278 134.92832303 146.74370313 C134.95025837 142.72648765 134.97760998 138.70930907 135.00437927 134.69212341 C135.05420443 127.09211019 135.09918083 119.49207637 135.14240164 111.89202303 C135.19186123 103.23662012 135.24674689 94.58125426 135.30208123 85.92588723 C135.41574497 68.12770774 135.52190153 50.32949404 135.625 32.53125 C146.185 32.53125 156.745 32.53125 167.625 32.53125 C167.7154671 52.64660947 167.78907882 72.76180296 167.83224869 92.87731457 C167.85283039 102.21833289 167.88086654 111.55921538 167.92675781 120.90014648 C167.96676057 129.04641816 167.99246469 137.19259139 168.00135398 145.33895856 C168.00654609 149.64816152 168.01865666 153.957083 168.04792023 158.2661953 C168.07530236 162.33164215 168.08339958 166.39669464 168.07743073 170.46222496 C168.07852087 171.94517671 168.08633809 173.42814324 168.1018219 174.91101456 C168.28251141 193.12665188 162.49878162 209.06153565 149.95483398 222.41845703 C138.97339642 233.50235076 123.57469077 240.68261052 107.91816682 240.80339891 C106.72077393 240.79772992 106.72077393 240.79772992 105.49919128 240.79194641 C104.62608805 240.79577196 103.75298481 240.79959751 102.85342389 240.80353898 C99.95194318 240.81378951 97.05066331 240.80989202 94.14916992 240.8059082 C92.0589632 240.81025911 89.96875807 240.81544352 87.8785553 240.82139587 C82.21728799 240.83475713 76.55608757 240.83536768 70.89480758 240.83283257 C66.16093134 240.8317608 61.42706852 240.83665157 56.69319516 240.841438 C45.5203067 240.8525235 34.34745185 240.85297613 23.17456055 240.84692383 C11.66669752 240.84088569 0.15895681 240.85319324 -11.34888536 240.8744939 C-21.24557103 240.89213556 -31.14221786 240.89810716 -41.03891867 240.89485615 C-46.94244603 240.89304707 -52.84588614 240.89564196 -58.74939919 240.90957069 C-64.30381016 240.92218595 -69.85803114 240.92016994 -75.41243935 240.90715981 C-77.44406703 240.90480244 -79.47570824 240.9074984 -81.5073204 240.91578293 C-102.02846906 240.99339149 -119.05255182 237.29532555 -134.36352539 222.81054688 C-146.62605368 210.52906568 -152.63179067 194.72394975 -152.62384033 177.63592529 C-152.61676424 176.19152739 -152.60949465 174.74713043 -152.60205078 173.30273438 C-152.60148596 171.76462817 -152.60180462 170.22652142 -152.60293579 168.68841553 C-152.60350752 164.53194926 -152.59178245 160.3755994 -152.57778788 156.21916008 C-152.56525042 151.86832145 -152.56410764 147.51747989 -152.56173706 143.16662598 C-152.55553113 134.93619598 -152.53913236 126.70581938 -152.51903808 118.47541285 C-152.49665142 109.10177352 -152.4856787 99.72813158 -152.47564721 90.35447216 C-152.45476532 71.08002839 -152.4181002 51.80565778 -152.375 32.53125 C-141.815 32.53125 -131.255 32.53125 -120.375 32.53125 C-120.345271 38.98812378 -120.345271 38.98812378 -120.31494141 45.57543945 C-120.24797411 59.81271911 -120.17043339 74.04992676 -120.08747292 88.28712177 C-120.03744133 96.91738949 -119.99099766 105.54764816 -119.953125 114.17797852 C-119.92008969 121.70388008 -119.88019551 129.22970939 -119.83220994 136.75553101 C-119.80705917 140.73701936 -119.78524478 144.7184605 -119.77165604 148.70000648 C-119.75873122 152.45517464 -119.73656706 156.21017992 -119.70761681 159.96525764 C-119.69436502 161.98487312 -119.69063979 164.00454425 -119.68730164 166.02420044 C-119.58073386 177.73497505 -118.85784511 188.09491877 -111.375 197.53125 C-102.71638858 206.01096449 -92.45544549 207.59775402 -80.69555664 207.73657227 C-79.96301666 207.74647186 -79.23047668 207.75637146 -78.47573853 207.76657104 C-76.07890949 207.79790225 -73.68206071 207.82282991 -71.28515625 207.84765625 C-69.61363744 207.86825036 -67.94212355 207.88924744 -66.27061462 207.91062927 C-61.88951626 207.96559636 -57.50837288 208.01511657 -53.12719727 208.06347656 C-48.64921097 208.11387779 -44.17128934 208.16946627 -39.69335938 208.22460938 C-30.92062773 208.33188033 -22.14784168 208.43339313 -13.375 208.53125 C-13.66375 207.42265625 -13.9525 206.3140625 -14.25 205.171875 C-14.62525062 203.70839757 -15.00023678 202.24485232 -15.375 200.78125 C-15.56578125 200.05164063 -15.7565625 199.32203125 -15.953125 198.5703125 C-16.84015964 195.08553354 -17.375 192.15001278 -17.375 188.53125 C-18.7867783 187.99730821 -20.20470244 187.47959896 -21.625 186.96875 C-22.80835938 186.53369141 -22.80835938 186.53369141 -24.015625 186.08984375 C-28.71479573 184.97729174 -31.95228587 187.29393546 -35.9453125 189.65625 C-37.00621094 190.28015625 -38.06710938 190.9040625 -39.16015625 191.546875 C-40.26230469 192.20171875 -41.36445313 192.8565625 -42.5 193.53125 C-44.68987652 194.82330258 -46.87996962 196.11498818 -49.0703125 197.40625 C-50.03984863 197.98117187 -51.00938477 198.55609375 -52.00830078 199.1484375 C-55.82919866 201.38090765 -57.8772717 202.19758012 -62.375 201.53125 C-65.36855767 199.53982751 -67.82980336 197.0586169 -70.375 194.53125 C-71.26574219 193.66628906 -72.15648437 192.80132812 -73.07421875 191.91015625 C-81.2095495 183.91408936 -81.2095495 183.91408936 -81.69140625 179.88671875 C-81.27429041 175.46323098 -79.56814907 172.60573075 -77.3125 168.84375 C-76.90854004 168.14403076 -76.50458008 167.44431152 -76.08837891 166.72338867 C-73.11341121 161.61700473 -69.90990062 156.68605421 -66.4921875 151.86328125 C-65.08090106 148.91734417 -65.43308978 147.60848549 -66.375 144.53125 C-66.725625 143.273125 -67.07625 142.015 -67.4375 140.71875 C-67.746875 139.666875 -68.05625 138.615 -68.375 137.53125 C-69.44234375 137.42425781 -70.5096875 137.31726563 -71.609375 137.20703125 C-77.38100814 136.48112761 -82.98133794 135.10220244 -88.625 133.71875 C-89.70007813 133.47060547 -90.77515625 133.22246094 -91.8828125 132.96679688 C-93.43355469 132.5868457 -93.43355469 132.5868457 -95.015625 132.19921875 C-95.94922852 131.97516357 -96.88283203 131.7511084 -97.84472656 131.52026367 C-100.93158214 130.31369749 -102.40007359 129.19921772 -104.375 126.53125 C-104.89257812 123.5703125 -104.89257812 123.5703125 -104.90625 120.15625 C-104.91140625 118.92390625 -104.9165625 117.6915625 -104.921875 116.421875 C-104.90640625 115.13796875 -104.8909375 113.8540625 -104.875 112.53125 C-104.89046875 111.24734375 -104.9059375 109.9634375 -104.921875 108.640625 C-104.91671875 107.40828125 -104.9115625 106.1759375 -104.90625 104.90625 C-104.90173828 103.77960938 -104.89722656 102.65296875 -104.89257812 101.4921875 C-104.24826809 97.80624784 -103.38262735 96.72053448 -100.375 94.53125 C-97.4140625 93.43457031 -97.4140625 93.43457031 -94 92.609375 C-92.15148437 92.15498047 -92.15148437 92.15498047 -90.265625 91.69140625 C-88.33976562 91.24087891 -88.33976562 91.24087891 -86.375 90.78125 C-85.07783101 90.46343712 -83.78095206 90.14443796 -82.484375 89.82421875 C-72.99485931 87.53125 -72.99485931 87.53125 -68.375 87.53125 C-67.84105821 86.1194717 -67.32334896 84.70154756 -66.8125 83.28125 C-66.37744141 82.09789062 -66.37744141 82.09789062 -65.93359375 80.890625 C-64.82104174 76.19145427 -67.13768546 72.95396413 -69.5 68.9609375 C-70.12390625 67.90003906 -70.7478125 66.83914063 -71.390625 65.74609375 C-72.04546875 64.64394531 -72.7003125 63.54179687 -73.375 62.40625 C-74.66705258 60.21637348 -75.95873818 58.02628038 -77.25 55.8359375 C-77.82492188 54.86640137 -78.39984375 53.89686523 -78.9921875 52.89794922 C-81.22465765 49.07705134 -82.04133012 47.0289783 -81.375 42.53125 C-79.38357751 39.53769233 -76.9023669 37.07644664 -74.375 34.53125 C-73.51003906 33.64050781 -72.64507812 32.74976563 -71.75390625 31.83203125 C-63.75783936 23.6967005 -63.75783936 23.6967005 -59.73046875 23.21484375 C-55.30698098 23.63195959 -52.44948075 25.33810093 -48.6875 27.59375 C-47.63792114 28.19968994 -47.63792114 28.19968994 -46.56713867 28.81787109 C-41.46075473 31.79283879 -36.52980421 34.99634938 -31.70703125 38.4140625 C-28.76109417 39.82534894 -27.45223549 39.47316022 -24.375 38.53125 C-22.4878125 38.0053125 -22.4878125 38.0053125 -20.5625 37.46875 C-19.510625 37.159375 -18.45875 36.85 -17.375 36.53125 C-17.26800781 35.46390625 -17.16101563 34.3965625 -17.05078125 33.296875 C-16.32487761 27.52524186 -14.94595244 21.92491206 -13.5625 16.28125 C-13.1902832 14.66863281 -13.1902832 14.66863281 -12.81054688 13.0234375 C-12.4305957 11.47269531 -12.4305957 11.47269531 -12.04296875 9.890625 C-11.81891357 8.95702148 -11.5948584 8.02341797 -11.36401367 7.06152344 C-9.07869914 1.21481897 -6.05806161 0.02425997 0 0 Z M-28.78125 81.59375 C-38.62390124 93.55932602 -40.84020632 106.45759446 -39.375 121.53125 C-37.03458771 133.92986275 -29.26785948 144.87825605 -19.0625 152.1875 C-7.54324092 159.53102766 4.17763167 161.03180235 17.625 159.53125 C30.27170652 156.60678035 39.954267 148.79797343 47.625 138.53125 C54.8481721 126.55985056 56.52672701 113.70036508 53.97265625 100.04296875 C50.57865683 88.81218097 42.84053241 77.80923364 32.66015625 71.7734375 C11.05719871 60.71827752 -11.74428194 63.59242526 -28.78125 81.59375 Z " fill="#000000" transform="translate(248.375,239.46875)"/>
<path d="M0 0 C0.83968323 -0.00058411 1.67936646 -0.00116821 2.54449463 -0.00177002 C5.3043432 0.00100417 8.06309533 0.03206406 10.82275391 0.06347656 C12.74231374 0.07094133 14.66188122 0.07663315 16.58145142 0.08062744 C21.62206233 0.09586518 26.66220873 0.13513103 31.70263672 0.17944336 C36.85068479 0.22043617 41.99880826 0.23864702 47.14697266 0.25878906 C57.23962413 0.30162703 67.33193157 0.36985588 77.42431641 0.45410156 C77.43018265 1.03546371 77.43604889 1.61682587 77.4420929 2.21580505 C77.5063295 8.30002426 77.59082517 14.38372925 77.68676758 20.4675293 C77.71989693 22.73406163 77.74796569 25.00067408 77.77075195 27.26733398 C77.80451876 30.53696644 77.85684613 33.80587254 77.91259766 37.07519531 C77.92218254 38.58043007 77.92218254 38.58043007 77.93196106 40.11607361 C78.07957993 47.27782317 78.63769703 54.43526391 83.67431641 59.89160156 C90.41592288 63.72205978 97.0281392 63.78180142 104.60791016 63.86816406 C105.66341568 63.88753021 106.7189212 63.90689636 107.80641174 63.92684937 C111.15813261 63.98634709 114.50988838 64.03291121 117.86181641 64.07910156 C120.14242985 64.11730876 122.42302929 64.15636207 124.70361328 64.19628906 C130.27705611 64.29202398 135.85058418 64.37715774 141.42431641 64.45410156 C141.517772 83.9080045 141.58830162 103.36186187 141.63156509 122.81594276 C141.65218733 131.84888845 141.68030143 140.88169464 141.72607422 149.91455078 C141.76595239 157.78791058 141.79175169 165.66116934 141.80067039 173.53462732 C141.8058835 177.70332305 141.81812897 181.87172973 141.84723663 186.04033279 C141.87442135 189.965409 141.88275532 193.89007755 141.87674713 197.81523895 C141.87784601 199.25436749 141.88578204 200.69350989 141.90113831 202.13255692 C141.92110979 204.10093525 141.91385473 206.06953317 141.90533447 208.03799438 C141.90902164 209.13861521 141.91270882 210.23923603 141.91650772 211.373209 C141.1307893 216.29144702 138.51914625 219.38993627 135.01416016 222.79675293 C129.4403613 225.37004819 124.05402811 225.01011607 117.98681641 224.97167969 C116.61636615 224.97710456 115.24592172 224.98422927 113.87548828 224.99291992 C110.16466905 225.01111323 106.454296 225.00410258 102.74346924 224.99140358 C98.85452092 224.98125505 94.96561003 224.99067439 91.07666016 224.99694824 C84.54664269 225.00421928 78.01680636 224.99465132 71.48681641 224.97558594 C63.94426456 224.9538181 56.40214525 224.96086987 48.85960388 224.98289156 C42.37617804 225.00106116 35.89288217 225.0035963 29.40943909 224.99313688 C25.54046543 224.98691047 21.67169487 224.98604268 17.80273438 224.99928284 C14.16475239 225.0108636 10.52732641 225.00277582 6.8894043 224.97970581 C4.92253375 224.97192003 2.95561602 224.98375565 0.98876953 224.99621582 C-10.0110843 224.89085324 -10.0110843 224.89085324 -14.57568359 220.45410156 C-18.74880046 215.62761572 -19.14167745 211.96738032 -19.02978516 205.87841797 C-19.03036926 205.03873474 -19.03095337 204.19905151 -19.03155518 203.33392334 C-19.02878098 200.57407476 -18.9977211 197.81532264 -18.96630859 195.05566406 C-18.95884383 193.13610423 -18.95315201 191.21653675 -18.94915771 189.29696655 C-18.93391998 184.25635564 -18.89465413 179.21620924 -18.8503418 174.17578125 C-18.80213569 168.12185769 -18.78384623 162.0677784 -18.76052856 156.01371765 C-18.72180206 146.82685636 -18.64513526 137.64101333 -18.57568359 128.45410156 C-45.80068359 128.94910156 -45.80068359 128.94910156 -73.57568359 129.45410156 C-71.59568359 131.76410156 -69.61568359 134.07410156 -67.57568359 136.45410156 C-65.48262783 140.64021308 -66.15203751 145.89543104 -66.57568359 150.45410156 C-68.84355797 155.33875407 -71.69103109 158.18622719 -76.57568359 160.45410156 C-82.7758394 161.28873792 -87.5889881 161.4524205 -92.85339355 157.8001709 C-96.34278122 155.0730125 -99.41054393 151.90273568 -102.52880859 148.76660156 C-103.27024109 148.02708252 -104.01167358 147.28756348 -104.77557373 146.52563477 C-106.33444955 144.96811481 -107.89082311 143.40808682 -109.44482422 141.84570312 C-111.82477331 139.45501595 -114.21523938 137.07521972 -116.60693359 134.69628906 C-118.12320054 133.17870101 -119.63884724 131.66049294 -121.15380859 130.14160156 C-122.22565399 129.07582886 -122.22565399 129.07582886 -123.31915283 127.98852539 C-123.98034119 127.32103271 -124.64152954 126.65354004 -125.32275391 125.96582031 C-125.9042218 125.38276123 -126.4856897 124.79970215 -127.08477783 124.19897461 C-130.2540788 120.48980132 -130.88923674 117.40882401 -130.95068359 112.57910156 C-130.97904297 111.57105469 -131.00740234 110.56300781 -131.03662109 109.52441406 C-129.9608992 102.35901227 -123.80663583 97.39140383 -118.88818359 92.50097656 C-118.14866455 91.75954407 -117.40914551 91.01811157 -116.6472168 90.25421143 C-115.08969684 88.6953356 -113.52966885 87.13896205 -111.96728516 85.58496094 C-109.57659799 83.20501185 -107.19680175 80.81454578 -104.81787109 78.42285156 C-103.30028304 76.90658462 -101.78207497 75.39093792 -100.26318359 73.87597656 C-99.55266846 73.16141296 -98.84215332 72.44684937 -98.11010742 71.71063232 C-97.44261475 71.04944397 -96.77512207 70.38825562 -96.08740234 69.70703125 C-95.50434326 69.12556335 -94.92128418 68.54409546 -94.32055664 67.94500732 C-89.69803538 63.99529672 -85.38111307 64.02692775 -79.48974609 64.14160156 C-74.18828258 64.71012312 -71.73595865 67.2327594 -68.20068359 70.95410156 C-65.80754134 76.1085618 -65.8012794 80.86459011 -66.57568359 86.45410156 C-68.52815323 90.2917143 -70.53294682 92.41136479 -73.57568359 95.45410156 C-55.42568359 95.78410156 -37.27568359 96.11410156 -18.57568359 96.45410156 C-18.62208984 90.31558594 -18.66849609 84.17707031 -18.71630859 77.85253906 C-18.73674996 73.96059504 -18.75600592 70.06871732 -18.77099609 66.17675781 C-18.79489529 60.00099926 -18.82314955 53.82547824 -18.87744141 47.64990234 C-18.92094484 42.67024764 -18.94483041 37.6908477 -18.95519257 32.71101761 C-18.96257584 30.81241471 -18.97699374 28.91382554 -18.99860382 27.01533127 C-19.02769768 24.35317754 -19.03163712 21.69207263 -19.02978516 19.02978516 C-19.04416626 18.2471933 -19.05854736 17.46460144 -19.07336426 16.65829468 C-19.0344471 11.47846366 -18.07641203 8.50292568 -14.57568359 4.45410156 C-9.74919775 0.2809847 -6.08896235 -0.11189229 0 0 Z M15.42431641 99.45410156 C14.0038982 102.29493798 14.10979368 104.30887434 14.42431641 107.45410156 C16.65638072 110.30190775 17.97424639 111.30407822 21.42431641 112.45410156 C23.96290041 112.56028883 26.47443765 112.61133488 29.01342773 112.61523438 C30.17005669 112.62268173 30.17005669 112.62268173 31.35005188 112.63027954 C33.90215954 112.64488963 36.45420503 112.6517015 39.00634766 112.65722656 C40.78130596 112.66297929 42.55626426 112.66873701 44.33122253 112.67449951 C48.05439544 112.68500644 51.77754677 112.69085102 55.50073242 112.69433594 C60.26556368 112.69981777 65.03010877 112.72384041 69.79485035 112.75230789 C73.46234462 112.77095605 77.12977029 112.77614105 80.79730797 112.77767181 C82.55354056 112.78069433 84.30977205 112.78870931 86.06595802 112.80185699 C88.52653221 112.81896201 90.98641153 112.81702649 93.44702148 112.81054688 C94.16879578 112.81976166 94.89057007 112.82897644 95.63421631 112.83847046 C100.28463623 112.8002176 103.47943678 111.92007099 107.42431641 109.45410156 C108.84473461 106.61326515 108.73883913 104.59932879 108.42431641 101.45410156 C106.1922521 98.60629537 104.87438642 97.6041249 101.42431641 96.45410156 C98.88573241 96.3479143 96.37419516 96.29686824 93.83520508 96.29296875 C93.06411911 96.28800385 92.29303314 96.28303894 91.49858093 96.27792358 C88.94647327 96.26331349 86.39442778 96.25650163 83.84228516 96.25097656 C82.06732685 96.24522384 80.29236856 96.23946612 78.51741028 96.23370361 C74.79423737 96.22319668 71.07108604 96.21735211 67.34790039 96.21386719 C62.58306913 96.20838535 57.81852404 96.18436272 53.05378246 96.15589523 C49.38628819 96.13724708 45.71886252 96.13206208 42.05132484 96.13053131 C40.29509226 96.1275088 38.53886076 96.11949382 36.78267479 96.10634613 C34.3221006 96.08924111 31.86222128 96.09117663 29.40161133 96.09765625 C28.67983704 96.08844147 27.95806274 96.07922668 27.2144165 96.06973267 C22.56399658 96.10798552 19.36919604 96.98813214 15.42431641 99.45410156 Z M15.42431641 131.45410156 C14.0038982 134.29493798 14.10979368 136.30887434 14.42431641 139.45410156 C16.65638072 142.30190775 17.97424639 143.30407822 21.42431641 144.45410156 C23.96290041 144.56028883 26.47443765 144.61133488 29.01342773 144.61523438 C30.17005669 144.62268173 30.17005669 144.62268173 31.35005188 144.63027954 C33.90215954 144.64488963 36.45420503 144.6517015 39.00634766 144.65722656 C40.78130596 144.66297929 42.55626426 144.66873701 44.33122253 144.67449951 C48.05439544 144.68500644 51.77754677 144.69085102 55.50073242 144.69433594 C60.26556368 144.69981777 65.03010877 144.72384041 69.79485035 144.75230789 C73.46234462 144.77095605 77.12977029 144.77614105 80.79730797 144.77767181 C82.55354056 144.78069433 84.30977205 144.78870931 86.06595802 144.80185699 C88.52653221 144.81896201 90.98641153 144.81702649 93.44702148 144.81054688 C94.16879578 144.81976166 94.89057007 144.82897644 95.63421631 144.83847046 C100.28463623 144.8002176 103.47943678 143.92007099 107.42431641 141.45410156 C108.84473461 138.61326515 108.73883913 136.59932879 108.42431641 133.45410156 C106.1922521 130.60629537 104.87438642 129.6041249 101.42431641 128.45410156 C98.88573241 128.3479143 96.37419516 128.29686824 93.83520508 128.29296875 C93.06411911 128.28800385 92.29303314 128.28303894 91.49858093 128.27792358 C88.94647327 128.26331349 86.39442778 128.25650163 83.84228516 128.25097656 C82.06732685 128.24522384 80.29236856 128.23946612 78.51741028 128.23370361 C74.79423737 128.22319668 71.07108604 128.21735211 67.34790039 128.21386719 C62.58306913 128.20838535 57.81852404 128.18436272 53.05378246 128.15589523 C49.38628819 128.13724708 45.71886252 128.13206208 42.05132484 128.13053131 C40.29509226 128.1275088 38.53886076 128.11949382 36.78267479 128.10634613 C34.3221006 128.08924111 31.86222128 128.09117663 29.40161133 128.09765625 C28.67983704 128.08844147 27.95806274 128.07922668 27.2144165 128.06973267 C22.56399658 128.10798552 19.36919604 128.98813214 15.42431641 131.45410156 Z M15.42431641 163.45410156 C14.0038982 166.29493798 14.10979368 168.30887434 14.42431641 171.45410156 C16.65638072 174.30190775 17.97424639 175.30407822 21.42431641 176.45410156 C23.96290041 176.56028883 26.47443765 176.61133488 29.01342773 176.61523438 C30.17005669 176.62268173 30.17005669 176.62268173 31.35005188 176.63027954 C33.90215954 176.64488963 36.45420503 176.6517015 39.00634766 176.65722656 C40.78130596 176.66297929 42.55626426 176.66873701 44.33122253 176.67449951 C48.05439544 176.68500644 51.77754677 176.69085102 55.50073242 176.69433594 C60.26556368 176.69981777 65.03010877 176.72384041 69.79485035 176.75230789 C73.46234462 176.77095605 77.12977029 176.77614105 80.79730797 176.77767181 C82.55354056 176.78069433 84.30977205 176.78870931 86.06595802 176.80185699 C88.52653221 176.81896201 90.98641153 176.81702649 93.44702148 176.81054688 C94.16879578 176.81976166 94.89057007 176.82897644 95.63421631 176.83847046 C100.28463623 176.8002176 103.47943678 175.92007099 107.42431641 173.45410156 C108.84473461 170.61326515 108.73883913 168.59932879 108.42431641 165.45410156 C106.1922521 162.60629537 104.87438642 161.6041249 101.42431641 160.45410156 C98.88573241 160.3479143 96.37419516 160.29686824 93.83520508 160.29296875 C93.06411911 160.28800385 92.29303314 160.28303894 91.49858093 160.27792358 C88.94647327 160.26331349 86.39442778 160.25650163 83.84228516 160.25097656 C82.06732685 160.24522384 80.29236856 160.23946612 78.51741028 160.23370361 C74.79423737 160.22319668 71.07108604 160.21735211 67.34790039 160.21386719 C62.58306913 160.20838535 57.81852404 160.18436272 53.05378246 160.15589523 C49.38628819 160.13724708 45.71886252 160.13206208 42.05132484 160.13053131 C40.29509226 160.1275088 38.53886076 160.11949382 36.78267479 160.10634613 C34.3221006 160.08924111 31.86222128 160.09117663 29.40161133 160.09765625 C28.67983704 160.08844147 27.95806274 160.07922668 27.2144165 160.06973267 C22.56399658 160.10798552 19.36919604 160.98813214 15.42431641 163.45410156 Z " fill="#000000" transform="translate(338.57568359375,31.5458984375)"/>
<path d="M0 0 C0.83968323 -0.00058411 1.67936646 -0.00116821 2.54449463 -0.00177002 C5.3043432 0.00100417 8.06309533 0.03206406 10.82275391 0.06347656 C12.74231374 0.07094133 14.66188122 0.07663315 16.58145142 0.08062744 C21.62206233 0.09586518 26.66220873 0.13513103 31.70263672 0.17944336 C36.85068479 0.22043617 41.99880826 0.23864702 47.14697266 0.25878906 C57.23962413 0.30162703 67.33193157 0.36985588 77.42431641 0.45410156 C77.43018265 1.03546371 77.43604889 1.61682587 77.4420929 2.21580505 C77.5063295 8.30002426 77.59082517 14.38372925 77.68676758 20.4675293 C77.71989693 22.73406163 77.74796569 25.00067408 77.77075195 27.26733398 C77.80451876 30.53696644 77.85684613 33.80587254 77.91259766 37.07519531 C77.91898758 38.07868515 77.9253775 39.08217499 77.93196106 40.11607361 C78.07957993 47.27782317 78.63769703 54.43526391 83.67431641 59.89160156 C90.41592288 63.72205978 97.0281392 63.78180142 104.60791016 63.86816406 C105.66341568 63.88753021 106.7189212 63.90689636 107.80641174 63.92684937 C111.15813261 63.98634709 114.50988838 64.03291121 117.86181641 64.07910156 C120.14242985 64.11730876 122.42302929 64.15636207 124.70361328 64.19628906 C130.27705611 64.29202398 135.85058418 64.37715774 141.42431641 64.45410156 C141.517772 83.9080045 141.58830162 103.36186187 141.63156509 122.81594276 C141.65218733 131.84888845 141.68030143 140.88169464 141.72607422 149.91455078 C141.76595239 157.78791058 141.79175169 165.66116934 141.80067039 173.53462732 C141.8058835 177.70332305 141.81812897 181.87172973 141.84723663 186.04033279 C141.87442135 189.965409 141.88275532 193.89007755 141.87674713 197.81523895 C141.87784601 199.25436749 141.88578204 200.69350989 141.90113831 202.13255692 C141.92110979 204.10093525 141.91385473 206.06953317 141.90533447 208.03799438 C141.90902164 209.13861521 141.91270882 210.23923603 141.91650772 211.373209 C141.1307893 216.29144702 138.51914625 219.38993627 135.01416016 222.79675293 C129.4403613 225.37004819 124.05402811 225.01011607 117.98681641 224.97167969 C116.61636615 224.97710456 115.24592172 224.98422927 113.87548828 224.99291992 C110.16466905 225.01111323 106.454296 225.00410258 102.74346924 224.99140358 C98.85452092 224.98125505 94.96561003 224.99067439 91.07666016 224.99694824 C84.54664269 225.00421928 78.01680636 224.99465132 71.48681641 224.97558594 C63.94426456 224.9538181 56.40214525 224.96086987 48.85960388 224.98289156 C42.37617804 225.00106116 35.89288217 225.0035963 29.40943909 224.99313688 C25.54046543 224.98691047 21.67169487 224.98604268 17.80273438 224.99928284 C14.16475239 225.0108636 10.52732641 225.00277582 6.8894043 224.97970581 C4.92253375 224.97192003 2.95561602 224.98375565 0.98876953 224.99621582 C-10.0110843 224.89085324 -10.0110843 224.89085324 -14.57568359 220.45410156 C-18.41411821 215.70824252 -19.15226043 211.96859933 -19.08361816 206.02832031 C-19.08985813 205.19438248 -19.09609809 204.36044464 -19.10252714 203.50123596 C-19.11844752 200.71440125 -19.10585676 197.92844235 -19.09326172 195.14160156 C-19.09868326 193.14061982 -19.1058061 191.13964207 -19.11450195 189.13867188 C-19.13273431 183.70894582 -19.12566803 178.27952384 -19.11298561 172.84979248 C-19.10285756 167.16710593 -19.11225075 161.48444539 -19.11853027 155.80175781 C-19.12580723 146.25874152 -19.11621765 136.71584906 -19.09716797 127.17285156 C-19.07539921 116.14032569 -19.08245054 105.10809549 -19.10447359 94.07557678 C-19.12262615 84.60280323 -19.12518659 75.13011869 -19.11471891 65.65733337 C-19.10848323 59.99985914 -19.10765053 54.34252389 -19.12086487 48.68505859 C-19.13242056 43.36619222 -19.12440249 38.04770703 -19.10128784 32.72888184 C-19.09599929 30.77698398 -19.09751701 28.82505403 -19.1063385 26.87316895 C-19.11727176 24.20830734 -19.10355748 21.54466665 -19.08361816 18.87988281 C-19.09254105 18.10769913 -19.10146394 17.33551544 -19.11065722 16.53993225 C-19.03553574 11.36288434 -17.8334702 8.44664096 -14.57568359 4.45410156 C-9.74919775 0.2809847 -6.08896235 -0.11189229 0 0 Z M15.42431641 99.45410156 C14.0038982 102.29493798 14.10979368 104.30887434 14.42431641 107.45410156 C16.65638072 110.30190775 17.97424639 111.30407822 21.42431641 112.45410156 C23.96290041 112.56028883 26.47443765 112.61133488 29.01342773 112.61523438 C30.17005669 112.62268173 30.17005669 112.62268173 31.35005188 112.63027954 C33.90215954 112.64488963 36.45420503 112.6517015 39.00634766 112.65722656 C40.78130596 112.66297929 42.55626426 112.66873701 44.33122253 112.67449951 C48.05439544 112.68500644 51.77754677 112.69085102 55.50073242 112.69433594 C60.26556368 112.69981777 65.03010877 112.72384041 69.79485035 112.75230789 C73.46234462 112.77095605 77.12977029 112.77614105 80.79730797 112.77767181 C82.55354056 112.78069433 84.30977205 112.78870931 86.06595802 112.80185699 C88.52653221 112.81896201 90.98641153 112.81702649 93.44702148 112.81054688 C94.16879578 112.81976166 94.89057007 112.82897644 95.63421631 112.83847046 C100.28463623 112.8002176 103.47943678 111.92007099 107.42431641 109.45410156 C108.84473461 106.61326515 108.73883913 104.59932879 108.42431641 101.45410156 C106.1922521 98.60629537 104.87438642 97.6041249 101.42431641 96.45410156 C98.88573241 96.3479143 96.37419516 96.29686824 93.83520508 96.29296875 C93.06411911 96.28800385 92.29303314 96.28303894 91.49858093 96.27792358 C88.94647327 96.26331349 86.39442778 96.25650163 83.84228516 96.25097656 C82.06732685 96.24522384 80.29236856 96.23946612 78.51741028 96.23370361 C74.79423737 96.22319668 71.07108604 96.21735211 67.34790039 96.21386719 C62.58306913 96.20838535 57.81852404 96.18436272 53.05378246 96.15589523 C49.38628819 96.13724708 45.71886252 96.13206208 42.05132484 96.13053131 C40.29509226 96.1275088 38.53886076 96.11949382 36.78267479 96.10634613 C34.3221006 96.08924111 31.86222128 96.09117663 29.40161133 96.09765625 C28.67983704 96.08844147 27.95806274 96.07922668 27.2144165 96.06973267 C22.56399658 96.10798552 19.36919604 96.98813214 15.42431641 99.45410156 Z M15.42431641 131.45410156 C14.0038982 134.29493798 14.10979368 136.30887434 14.42431641 139.45410156 C16.65638072 142.30190775 17.97424639 143.30407822 21.42431641 144.45410156 C23.96290041 144.56028883 26.47443765 144.61133488 29.01342773 144.61523438 C30.17005669 144.62268173 30.17005669 144.62268173 31.35005188 144.63027954 C33.90215954 144.64488963 36.45420503 144.6517015 39.00634766 144.65722656 C40.78130596 144.66297929 42.55626426 144.66873701 44.33122253 144.67449951 C48.05439544 144.68500644 51.77754677 144.69085102 55.50073242 144.69433594 C60.26556368 144.69981777 65.03010877 144.72384041 69.79485035 144.75230789 C73.46234462 144.77095605 77.12977029 144.77614105 80.79730797 144.77767181 C82.55354056 144.78069433 84.30977205 144.78870931 86.06595802 144.80185699 C88.52653221 144.81896201 90.98641153 144.81702649 93.44702148 144.81054688 C94.16879578 144.81976166 94.89057007 144.82897644 95.63421631 144.83847046 C100.28463623 144.8002176 103.47943678 143.92007099 107.42431641 141.45410156 C108.84473461 138.61326515 108.73883913 136.59932879 108.42431641 133.45410156 C106.1922521 130.60629537 104.87438642 129.6041249 101.42431641 128.45410156 C98.88573241 128.3479143 96.37419516 128.29686824 93.83520508 128.29296875 C93.06411911 128.28800385 92.29303314 128.28303894 91.49858093 128.27792358 C88.94647327 128.26331349 86.39442778 128.25650163 83.84228516 128.25097656 C82.06732685 128.24522384 80.29236856 128.23946612 78.51741028 128.23370361 C74.79423737 128.22319668 71.07108604 128.21735211 67.34790039 128.21386719 C62.58306913 128.20838535 57.81852404 128.18436272 53.05378246 128.15589523 C49.38628819 128.13724708 45.71886252 128.13206208 42.05132484 128.13053131 C40.29509226 128.1275088 38.53886076 128.11949382 36.78267479 128.10634613 C34.3221006 128.08924111 31.86222128 128.09117663 29.40161133 128.09765625 C28.67983704 128.08844147 27.95806274 128.07922668 27.2144165 128.06973267 C22.56399658 128.10798552 19.36919604 128.98813214 15.42431641 131.45410156 Z M15.42431641 163.45410156 C14.0038982 166.29493798 14.10979368 168.30887434 14.42431641 171.45410156 C16.65638072 174.30190775 17.97424639 175.30407822 21.42431641 176.45410156 C23.96290041 176.56028883 26.47443765 176.61133488 29.01342773 176.61523438 C30.17005669 176.62268173 30.17005669 176.62268173 31.35005188 176.63027954 C33.90215954 176.64488963 36.45420503 176.6517015 39.00634766 176.65722656 C40.78130596 176.66297929 42.55626426 176.66873701 44.33122253 176.67449951 C48.05439544 176.68500644 51.77754677 176.69085102 55.50073242 176.69433594 C60.26556368 176.69981777 65.03010877 176.72384041 69.79485035 176.75230789 C73.46234462 176.77095605 77.12977029 176.77614105 80.79730797 176.77767181 C82.55354056 176.78069433 84.30977205 176.78870931 86.06595802 176.80185699 C88.52653221 176.81896201 90.98641153 176.81702649 93.44702148 176.81054688 C94.16879578 176.81976166 94.89057007 176.82897644 95.63421631 176.83847046 C100.28463623 176.8002176 103.47943678 175.92007099 107.42431641 173.45410156 C108.84473461 170.61326515 108.73883913 168.59932879 108.42431641 165.45410156 C106.1922521 162.60629537 104.87438642 161.6041249 101.42431641 160.45410156 C98.88573241 160.3479143 96.37419516 160.29686824 93.83520508 160.29296875 C93.06411911 160.28800385 92.29303314 160.28303894 91.49858093 160.27792358 C88.94647327 160.26331349 86.39442778 160.25650163 83.84228516 160.25097656 C82.06732685 160.24522384 80.29236856 160.23946612 78.51741028 160.23370361 C74.79423737 160.22319668 71.07108604 160.21735211 67.34790039 160.21386719 C62.58306913 160.20838535 57.81852404 160.18436272 53.05378246 160.15589523 C49.38628819 160.13724708 45.71886252 160.13206208 42.05132484 160.13053131 C40.29509226 160.1275088 38.53886076 160.11949382 36.78267479 160.10634613 C34.3221006 160.08924111 31.86222128 160.09117663 29.40161133 160.09765625 C28.67983704 160.08844147 27.95806274 160.07922668 27.2144165 160.06973267 C22.56399658 160.10798552 19.36919604 160.98813214 15.42431641 163.45410156 Z " fill="#000000" transform="translate(50.57568359375,31.5458984375)"/>
<path d="M0 0 C8.34468007 4.97590182 13.53387008 11.86345977 16.109375 21.2578125 C17.10789012 32.35758522 16.45884702 41.9922991 9.359375 51.0703125 C3.70168013 57.1280464 -3.34488592 60.84888618 -11.625 61.59375 C-22.35447774 61.83515993 -31.19802606 60.58332943 -39.359375 52.9609375 C-46.75303791 44.73737365 -48.47252567 36.02335615 -48.203125 25.24609375 C-47.72879865 16.86039919 -44.11592977 9.8548755 -37.890625 4.2578125 C-27.15195714 -3.81766573 -12.32399863 -5.91386512 0 0 Z " fill="#000000" transform="translate(271.890625,322.7421875)"/>
<path d="M0 0 C7.87699975 6.75171407 7.87699975 6.75171407 11.55834961 10.42895508 C12.37867172 11.24612503 13.19899384 12.06329498 14.04417419 12.90522766 C14.90487015 13.76794785 15.7655661 14.63066803 16.65234375 15.51953125 C18.00254356 16.86829597 18.00254356 16.86829597 19.38002014 18.24430847 C21.26964342 20.13325439 23.15823816 22.02316308 25.04516602 23.91479492 C27.46847733 26.34385209 29.89631743 28.76832574 32.32547665 31.19153309 C34.64518724 33.50677961 36.961105 35.82581218 39.27734375 38.14453125 C40.15220932 39.01737259 41.02707489 39.89021393 41.92845154 40.789505 C42.72670853 41.59091415 43.52496552 42.3923233 44.34741211 43.21801758 C45.40828285 44.28008171 45.40828285 44.28008171 46.49058533 45.36360168 C48 47 48 47 48 48 C32.16 48 16.32 48 0 48 C0 32.16 0 16.32 0 0 Z " fill="#000000" transform="translate(432,32)"/>
<path d="M0 0 C7.87699975 6.75171407 7.87699975 6.75171407 11.55834961 10.42895508 C12.37867172 11.24612503 13.19899384 12.06329498 14.04417419 12.90522766 C14.90487015 13.76794785 15.7655661 14.63066803 16.65234375 15.51953125 C18.00254356 16.86829597 18.00254356 16.86829597 19.38002014 18.24430847 C21.26964342 20.13325439 23.15823816 22.02316308 25.04516602 23.91479492 C27.46847733 26.34385209 29.89631743 28.76832574 32.32547665 31.19153309 C34.64518724 33.50677961 36.961105 35.82581218 39.27734375 38.14453125 C40.15220932 39.01737259 41.02707489 39.89021393 41.92845154 40.789505 C42.72670853 41.59091415 43.52496552 42.3923233 44.34741211 43.21801758 C45.40828285 44.28008171 45.40828285 44.28008171 46.49058533 45.36360168 C48 47 48 47 48 48 C32.16 48 16.32 48 0 48 C0 32.16 0 16.32 0 0 Z " fill="#000000" transform="translate(144,32)"/>
</svg>
